<svg width="35" height="35" viewBox="0 0 35 35" fill="none" xmlns="http://www.w3.org/2000/svg">
<path d="M27.6216 17.778C27.5708 17.8288 27.5105 17.8692 27.4441 17.8967C27.3777 17.9242 27.3065 17.9384 27.2347 17.9384C27.1628 17.9384 27.0916 17.9242 27.0253 17.8967C26.9589 17.8692 26.8986 17.8288 26.8478 17.778L17.9378 8.86801V31.6098C17.9378 31.7548 17.8802 31.8939 17.7776 31.9965C17.6751 32.0991 17.536 32.1567 17.3909 32.1567C17.2459 32.1567 17.1068 32.0991 17.0042 31.9965C16.9017 31.8939 16.8441 31.7548 16.8441 31.6098V8.86801L7.93409 17.778C7.88328 17.8288 7.82296 17.8691 7.75658 17.8966C7.69019 17.9241 7.61904 17.9382 7.54718 17.9382C7.47532 17.9382 7.40417 17.9241 7.33778 17.8966C7.2714 17.8691 7.21108 17.8288 7.16026 17.778C7.10945 17.7272 7.06915 17.6668 7.04165 17.6005C7.01415 17.5341 7 17.4629 7 17.3911C7 17.3192 7.01415 17.248 7.04165 17.1817C7.06915 17.1153 7.10945 17.055 7.16026 17.0041L17.004 7.16039C17.0548 7.10954 17.1151 7.06921 17.1815 7.04169C17.2479 7.01417 17.3191 7 17.3909 7C17.4628 7 17.534 7.01417 17.6004 7.04169C17.6667 7.06921 17.7271 7.10954 17.7778 7.16039L27.6216 17.0041C27.6724 17.0549 27.7128 17.1152 27.7403 17.1816C27.7678 17.248 27.782 17.3192 27.782 17.3911C27.782 17.4629 27.7678 17.5341 27.7403 17.6005C27.7128 17.6669 27.6724 17.7272 27.6216 17.778Z" fill="black"/>
</svg>
